<?xml version="1.0" encoding="utf-8"?>
<?xml-stylesheet type="text/xsl" href="rss1.xsl"?>
<rss version="2.0" xmlns:atom="http://www.w3.org/2005/Atom" xmlns:content="http://purl.org/rss/1.0/modules/content/" xmlns:dc="http://purl.org/dc/elements/1.1/" xmlns:media="http://search.yahoo.com/mrss/">
<channel>
 <title>Getty</title>
 <link>http://www.gettyimg.com/</link>
 <atom:link href="http://www.gettyimg.com/" rel="self" type="application/rss+xml" />

 
                <item>
                <title><![CDATA[【Music Videos】Miley Cyrus / Hannah Montana - If We Were a Movie Compliation - Hannah Montana (TV Series 2006–2011) 720p disney plus web-rip]]></title>
                <link><![CDATA[https://sharemania.us/threads/miley-cyrus-hannah-montana-if-we-were-a-movie-compliation-hannah-montana-tv-series-2006%E2%80%932011-720p-disney-plus-web-rip.222460/]]></link>
                <description><![CDATA[<article>
<blockquote class="messageText SelectQuoteContainer ugc baseHtml">
<img src="https://imgur.com/a/LQDvLXa" class="bbCodeImage LbImage" alt="[​IMG]" data-url="https://imgur.com/a/LQDvLXa" style=""> <br>
Ripped from disney plus. Merged by me.<br>
<div class="bbCodeBlock bbCodeCode">
<div class="type">Code:</div>
<pre>General
Unique ID                      : 269175722214583391854169926537920998627 (0xCA815BBE3C46B58D49AFDA32B7A96CE3)
Complete name                  : C:\Users\Tower\Desktop\If We Were a Movie Compliation.mkv
Format                         : Matroska
Format version                 : Version 4
File size                      : 104 MiB
Duration                       : 2 min 10 s
Overall bit rate mode          : Variable
Overall bit rate               : 6 665 kb/s
Encoded date                   : UTC 2023-06-11 07:22:01
Writing application            : mkvmerge v76.0 ('Celebration') 64-bit
Writing library                : libebml v1.4.4 + libmatroska v1.7.1 / Lavf59.27.100

Video
ID                             : 1
Format                         : AVC
Format/Info                    : Advanced Video Codec
Format profile                 : Main@L3.1
Format settings                : CABAC / 4 Ref Frames
Format settings, CABAC         : Yes
Format settings, Reference fra : 4 frames
Codec ID                       : V_MPEG4/ISO/AVC
Duration                       : 2 min 10 s
Bit rate mode                  : Variable
Bit rate                       : 6 537 kb/s
Maximum bit rate               : 11.2 Mb/s
Width                          : 1 280 pixels
Height                         : 720 pixels
Display aspect ratio           : 16:9
Frame rate mode                : Constant
Frame rate                     : 29.970 (29970/1000) FPS
Original frame rate            : 29.970 (30000/1001) FPS
Color space                    : YUV
Chroma subsampling             : 4:2:0
Bit depth                      : 8 bits
Scan type                      : Progressive
Bits/(Pixel*Frame)             : 0.237
Stream size                    : 102 MiB (98%)
Default                        : Yes
Forced                         : No
Color range                    : Limited
Color primaries                : BT.601 NTSC
Transfer characteristics       : BT.709
Matrix coefficients            : BT.601

Audio
ID                             : 2
Format                         : AAC LC
Format/Info                    : Advanced Audio Codec Low Complexity
Codec ID                       : A_AAC-2
Duration                       : 2 min 10 s
Bit rate                       : 125 kb/s
Channel(s)                     : 2 channels
Channel layout                 : L R
Sampling rate                  : 48.0 kHz
Frame rate                     : 46.875 FPS (1024 SPF)
Compression mode               : Lossy
Delay relative to video        : 1 ms
Stream size                    : 1.95 MiB (2%)
Title                          : Stereo
Default                        : Yes
Forced                         : No

</pre>
</div>
<div class="bbCodeBlock bbCodeVfcHH HiddenContent">
<div class="attribution type">Hidden Content:</div>
<blockquote>You must reply before you can see the hidden data contained here.</blockquote>
</div>
<div class="messageTextEndMarker">&nbsp;</div>
</blockquote>
</article>]]></description>
                <author><![CDATA[Osment]]></author>
                </item>

                </channel></rss>